<?xml version="1.0" encoding="UTF-8"?>
<svg id="a" data-name="Layer 2 copy" xmlns="http://www.w3.org/2000/svg" viewBox="0 0 1090.48 734.11">
  <defs>
    <style>
      .b {
        stroke-width: 0px;
      }
    </style>
  </defs>
  <g>
    <path class="b" d="m969.89,82.86c0-13.11-10.63-23.74-23.74-23.74s-23.74,10.63-23.74,23.74h47.48Zm-47.48,0v530.82h47.48V82.86h-47.48Z"/>
    <path class="b" d="m949.31,183.06c-1,2.44-4.43,2.46-5.47.05l-40.42-94.04c-.1-.23-.23-.45-.38-.65l-62.65-80.95c-1.61-2.08.08-5.07,2.7-4.76l101.65,12.01c.25.03.5.03.75,0l101.43-13.78c2.61-.35,4.35,2.61,2.78,4.72l-61.23,82.03c-.15.2-.27.42-.37.65l-38.78,94.73Z"/>
  </g>
  <g>
    <path class="b" d="m300.67,82.86c0-13.11-10.63-23.74-23.74-23.74s-23.74,10.63-23.74,23.74h47.48Zm-47.48,0v530.82h47.48V82.86h-47.48Z"/>
    <path class="b" d="m280.09,183.06c-1,2.44-4.43,2.46-5.47.05l-40.42-94.04c-.1-.23-.23-.45-.38-.65L171.16,7.48c-1.61-2.08.08-5.07,2.7-4.76l101.65,12.01c.25.03.5.03.75,0L377.68.93c2.61-.35,4.35,2.61,2.78,4.72l-61.23,82.03c-.15.2-.27.42-.37.65l-38.78,94.73Z"/>
  </g>
  <path class="b" d="m441.27,475.22c-11.89,0-21.52,10.63-21.52,23.74s9.63,23.74,21.52,23.74v-47.48Zm0,47.48h481.13v-47.48h-481.13v47.48Z"/>
  <path class="b" d="m543.69,495.79c2.44,1,2.46,4.43.05,5.47l-94.04,40.42c-.23.1-.45.23-.65.38l-80.95,62.65c-2.08,1.61-5.07-.08-4.76-2.7l12.01-101.65c.03-.25.03-.5,0-.75l-13.78-101.43c-.35-2.61,2.61-4.35,4.72-2.78l82.03,61.23c.2.15.42.27.65.37l94.73,38.78Z"/>
  <path class="b" d="m441.27,290.23c-11.89,0-21.52,10.63-21.52,23.74s9.63,23.74,21.52,23.74v-47.48Zm0,47.48h481.13v-47.48h-481.13v47.48Z"/>
  <path class="b" d="m543.69,310.81c2.44,1,2.46,4.43.05,5.47l-94.04,40.42c-.23.1-.45.23-.65.38l-80.95,62.65c-2.08,1.61-5.07-.08-4.76-2.7l12.01-101.65c.03-.25.03-.5,0-.75l-13.78-101.43c-.35-2.61,2.61-4.35,4.72-2.78l82.03,61.23c.2.15.42.27.65.37l94.73,38.78Z"/>
  <path class="b" d="m441.27,102.99c-11.89,0-21.52,10.63-21.52,23.74s9.63,23.74,21.52,23.74v-47.48Zm0,47.48h481.13v-47.48h-481.13v47.48Z"/>
  <path class="b" d="m543.69,123.57c2.44,1,2.46,4.43.05,5.47l-94.04,40.42c-.23.1-.45.23-.65.38l-80.95,62.65c-2.08,1.61-5.07-.08-4.76-2.7l12.01-101.65c.03-.25.03-.5,0-.75l-13.78-101.43c-.35-2.61,2.61-4.35,4.72-2.78l82.03,61.23c.2.15.42.27.65.37l94.73,38.78Z"/>
  <path class="b" d="m267.18,567.21c-17.36,0-31.43,10.63-31.43,23.74s14.07,23.74,31.43,23.74v-47.48Zm0,47.48h702.7v-47.48H267.18v47.48Z"/>
  <path class="b" d="m359.7,587.78c2.44,1,2.46,4.43.05,5.47l-94.04,40.42c-.23.1-.45.23-.65.38l-80.95,62.65c-2.08,1.61-5.07-.08-4.76-2.7l12.01-101.65c.03-.25.03-.5,0-.75l-13.78-101.43c-.35-2.61,2.61-4.35,4.72-2.78l82.03,61.23c.2.15.42.27.65.37l94.73,38.78Z"/>
</svg>