<svg width="16" height="16" viewBox="0 0 16 16" fill="none" xmlns="http://www.w3.org/2000/svg">
<rect width="16" height="16" fill="#EFEFEF"/>
<path d="M2.17547 6.71277C1.99874 6.71277 1.85547 6.85423 1.85547 7.02875C1.85547 7.20327 1.99874 7.34473 2.17547 7.34473V6.71277ZM2.17547 7.34473H5.87134V6.71277H2.17547V7.34473Z" fill="black"/>
<path d="M7.63445 5.29089C7.45771 5.29089 7.31445 5.43235 7.31445 5.60687C7.31445 5.78139 7.45771 5.92285 7.63445 5.92285V5.29089ZM7.63445 5.92285H14.7888V5.29089H7.63445V5.92285Z" fill="black"/>
<path d="M7.63445 8.19385C7.45771 8.19385 7.31445 8.33531 7.31445 8.50983C7.31445 8.68434 7.45771 8.8258 7.63445 8.8258V8.19385ZM7.63445 8.8258H14.7888V8.19385H7.63445V8.8258Z" fill="black"/>
<path d="M7.63445 11.0969C7.45771 11.0969 7.31445 11.2384 7.31445 11.4129C7.31445 11.5874 7.45771 11.7289 7.63445 11.7289V11.0969ZM7.63445 11.7289H14.7888V11.0969H7.63445V11.7289Z" fill="black"/>
<path d="M2.17547 9.6355C1.99874 9.6355 1.85547 9.77696 1.85547 9.95148C1.85547 10.126 1.99874 10.2675 2.17547 10.2675V9.6355ZM2.17547 10.2675H5.87134V9.6355H2.17547V10.2675Z" fill="black"/>
<path d="M3.79735 6.98649C3.83017 6.99976 3.83057 7.0455 3.798 7.05932L2.53053 7.59731C2.52743 7.59864 2.52451 7.60033 2.52185 7.60237L1.43086 8.43616C1.40281 8.45758 1.36249 8.43505 1.36665 8.40029L1.52854 7.04743C1.52893 7.04413 1.5289 7.04078 1.52845 7.03748L1.34268 5.68764C1.3379 5.65294 1.37782 5.62971 1.40624 5.65065L2.51181 6.46552C2.51451 6.46751 2.51745 6.46915 2.52057 6.47042L3.79735 6.98649Z" fill="black"/>
<path d="M8.98485 5.54679C9.01767 5.56004 9.01807 5.6058 8.98549 5.61963L7.71805 6.15762C7.71495 6.15892 7.71203 6.16062 7.70935 6.16267L6.61835 6.99646C6.59031 7.01789 6.54999 6.99536 6.55415 6.96058L6.71603 5.60774C6.71643 5.60442 6.71641 5.60108 6.71595 5.59778L6.53017 4.24793C6.52541 4.21323 6.56533 4.19001 6.59373 4.21096L7.69931 5.02582C7.70201 5.02782 7.70495 5.02946 7.70809 5.03072L8.98485 5.54679Z" fill="black"/>
<path d="M8.98485 11.3725C9.01767 11.3857 9.01807 11.4315 8.98549 11.4453L7.71805 11.9833C7.71495 11.9846 7.71203 11.9863 7.70935 11.9883L6.61835 12.8221C6.59031 12.8436 6.54999 12.821 6.55415 12.7863L6.71603 11.4334C6.71643 11.4301 6.71641 11.4268 6.71595 11.4235L6.53017 10.0736C6.52541 10.0389 6.56533 10.0157 6.59373 10.0366L7.69931 10.8515C7.70201 10.8535 7.70495 10.8551 7.70809 10.8564L8.98485 11.3725Z" fill="black"/>
<path d="M3.83104 9.89933C3.86386 9.91258 3.86426 9.95834 3.83168 9.97216L2.56424 10.5102C2.56114 10.5115 2.55822 10.5132 2.55554 10.5152L1.46455 11.349C1.43651 11.3704 1.39618 11.3479 1.40034 11.3131L1.56223 9.96028C1.56262 9.95698 1.56259 9.95362 1.56214 9.95032L1.37637 8.60046C1.37159 8.56576 1.41151 8.54256 1.43993 8.56349L2.5455 9.37836C2.5482 9.38036 2.55116 9.382 2.55428 9.38326L3.83104 9.89933Z" fill="black"/>
<path d="M9.01902 8.45961C9.05184 8.47289 9.05226 8.51864 9.01968 8.53247L7.75222 9.07046C7.74912 9.07176 7.7462 9.07346 7.74354 9.0755L6.65254 9.90928C6.62448 9.93073 6.58416 9.9082 6.58832 9.87342L6.75022 8.52058C6.7506 8.51726 6.75058 8.51392 6.75012 8.51063L6.56436 7.16077C6.55958 7.12607 6.5995 7.10286 6.62792 7.1238L7.73348 7.93867C7.73618 7.94066 7.73914 7.9423 7.74226 7.94356L9.01902 8.45961Z" fill="black"/>
</svg>
